<svg id="Layer_1" data-name="Layer 1" xmlns="http://www.w3.org/2000/svg" viewBox="0 0 357.15 119.76"><defs><style>.cls-1{fill:none;}.cls-2{fill:#d6a3c0;}.cls-3{fill:#ee97bc;}.cls-4{fill:#a9dae1;}.cls-5{fill:#c7b5ca;}.cls-6{fill:#a3d7df;}.cls-7{fill:#bed2e0;}.cls-8{fill:#1d1d1b;}</style></defs><rect class="cls-1" width="357.15" height="119.76"/><path class="cls-2" d="M189.18,303.78H172.33l8.44-14.65,8.43-14.66,5.57,9.67a10,10,0,0,1,0,10Z" transform="translate(-119.06 -235.88)"/><path class="cls-3" d="M180.77,289.12l-8.42-14.67L164.07,260h11a10,10,0,0,1,8.65,5l5.45,9.45Z" transform="translate(-119.06 -235.88)"/><path class="cls-4" d="M138.91,303.75l-5.58-9.67a10,10,0,0,1,0-10l5.59-9.66h16.84l-8.43,14.66Z" transform="translate(-119.06 -235.88)"/><path class="cls-5" d="M175.07,318.21H164l-8.29-14.44,33.43,0-5.46,9.44A10,10,0,0,1,175.07,318.21Z" transform="translate(-119.06 -235.88)"/><path class="cls-6" d="M172.35,274.45l-33.42,0,5.45-9.44a10,10,0,0,1,8.66-5h11Z" transform="translate(-119.06 -235.88)"/><path class="cls-7" d="M164,318.2H153a10,10,0,0,1-8.65-5l-5.44-9.44,8.43-14.65,8.41,14.66Z" transform="translate(-119.06 -235.88)"/><path class="cls-8" d="M209.87,264.62h17.68c9.08,0,15.25,5.11,15.25,13.24,0,9.28-7,13.54-15.47,13.54h-8.21v16h-9.25Zm9.25,19.43h7c4.28,0,7.3-1.65,7.3-6s-3.19-6.06-7.1-6.06h-7.25Z" transform="translate(-119.06 -235.88)"/><path class="cls-8" d="M249.73,264.62H259v16.67h17.19V264.62h9.25v42.74h-9.25V288.87H259v18.49h-9.25Z" transform="translate(-119.06 -235.88)"/><path class="cls-8" d="M304.92,264.62v42.74h-9.24V264.62Z" transform="translate(-119.06 -235.88)"/><path class="cls-8" d="M339.33,264.62v42.74h-9.25V264.62Z" transform="translate(-119.06 -235.88)"/><path class="cls-8" d="M347.51,283.36c0-2.73,0-5.72-.06-8.09h8.61c.17.83.29,3.06.34,4.09,1.09-2,3.69-4.83,9.31-4.83,6.44,0,10.63,4.36,10.63,12.42v20.41h-8.88V287.94c0-3.61-1.21-6.22-5.13-6.22-3.77,0-5.93,2.09-5.93,7.76v17.88h-8.89Z" transform="translate(-119.06 -235.88)"/><path class="cls-8" d="M413.67,262.11v36.44c0,2.92,0,5.88.06,8.81h-8.54c-.18-1-.35-2.62-.41-3.35-1.55,2.53-4.31,4.1-9.1,4.1-8.12,0-13.28-6.52-13.28-16.53s5.49-17.05,14.57-17.05c4.62,0,7.1,1.63,7.81,3.07V262.11Zm-22.15,29.24c0,6.25,2.44,9.64,6.79,9.64,6.11,0,6.81-5.09,6.81-9.71,0-5.48-.77-9.63-6.58-9.63C393.88,281.65,391.52,285.29,391.52,291.35Z" transform="translate(-119.06 -235.88)"/><path class="cls-8" d="M421.55,262.11h8.88V270h-8.88Zm0,13.16h8.88v32.09h-8.88Z" transform="translate(-119.06 -235.88)"/><path class="cls-8" d="M464.78,299.07a71.4,71.4,0,0,0,.43,8.29h-8.49a13.19,13.19,0,0,1-.45-3.13c-1.16,1.8-3.34,3.88-9,3.88-7.74,0-11-5.09-11-10.07,0-7.31,5.87-10.68,15.28-10.68h4.58v-2c0-2.28-.82-4.52-4.94-4.52-3.75,0-4.57,1.59-5,3.91h-8.45c.48-5.7,4-10.31,13.76-10.26,8.6.05,13.28,3.41,13.28,11.05Zm-8.66-6.31H452.5c-5.36,0-7.34,1.63-7.34,4.72,0,2.33,1.42,4.28,4.62,4.28,5.64,0,6.34-3.92,6.34-8.16Z" transform="translate(-119.06 -235.88)"/><path class="cls-8" d="M211.57,322.18h4c2,0,3.42,1.14,3.42,3s-1.47,3.11-3.51,3.11H213v4.29h-1.4Zm1.4,5h2.41c1.43,0,2.15-.7,2.15-1.92a1.84,1.84,0,0,0-2.09-1.9H213Z" transform="translate(-119.06 -235.88)"/><path class="cls-8" d="M220.47,327.08c0-1.07,0-1.66,0-2.07h1.28c0,.22,0,.81,0,1.55a2.68,2.68,0,0,1,2.56-1.73v1.31c-1.56.05-2.56.86-2.56,2.78v3.7h-1.32Z" transform="translate(-119.06 -235.88)"/><path class="cls-8" d="M232.17,328.8c0,2.19-1.26,4-3.58,4s-3.5-1.69-3.5-4,1.29-4,3.58-4C230.79,324.83,232.17,326.41,232.17,328.8Zm-5.73,0c0,1.67.84,2.89,2.2,2.89s2.18-1.15,2.18-2.88-.78-2.89-2.21-2.89S226.44,327.08,226.44,328.81Z" transform="translate(-119.06 -235.88)"/><path class="cls-8" d="M240.24,331.93c0,2.44-1,3.83-3.49,3.83-2.31,0-3-1.29-3.15-2.33h1.34a1.74,1.74,0,0,0,1.87,1.28c1.72,0,2.15-1.1,2.15-2.85v-.61a2.32,2.32,0,0,1-2.38,1.33c-1.87,0-3.14-1.53-3.14-3.75,0-2.49,1.44-4,3.28-4,1.45,0,2.07.68,2.24,1.19,0-.35,0-.85.06-1h1.24c0,.44,0,1.47,0,2.2Zm-5.44-3.16c0,1.6.83,2.69,2.08,2.69,1.64,0,2.12-1.1,2.12-2.79s-.45-2.72-2.08-2.72C235.52,326,234.8,327.12,234.8,328.77Z" transform="translate(-119.06 -235.88)"/><path class="cls-8" d="M242.48,327.08c0-1.07,0-1.66,0-2.07h1.29c0,.22,0,.81,0,1.55a2.69,2.69,0,0,1,2.56-1.73v1.31c-1.56.05-2.56.86-2.56,2.78v3.7h-1.31Z" transform="translate(-119.06 -235.88)"/><path class="cls-8" d="M248.42,329.05c0,1.55.79,2.65,2.08,2.65a1.75,1.75,0,0,0,1.84-1.18h1.32a3.08,3.08,0,0,1-3.2,2.28c-2.39,0-3.36-1.95-3.36-3.9,0-2.27,1.13-4.07,3.45-4.07s3.25,2,3.25,3.59c0,.23,0,.43,0,.63Zm4.05-.92c0-1.25-.64-2.26-1.94-2.26s-1.93.93-2.06,2.26Z" transform="translate(-119.06 -235.88)"/><path class="cls-8" d="M256.24,330.44a1.72,1.72,0,0,0,1.86,1.32c1.12,0,1.56-.48,1.56-1.17s-.35-1-1.8-1.39c-2.17-.53-2.63-1.2-2.63-2.23s.79-2.14,2.75-2.14,2.76,1.14,2.86,2.2h-1.27a1.5,1.5,0,0,0-1.65-1.18c-1.07,0-1.38.51-1.38,1s.31.85,1.71,1.18c2.3.55,2.76,1.32,2.76,2.45,0,1.33-1.05,2.31-2.95,2.31s-2.93-1-3.13-2.36Z" transform="translate(-119.06 -235.88)"/><path class="cls-8" d="M263.45,330.44a1.74,1.74,0,0,0,1.87,1.32c1.12,0,1.55-.48,1.55-1.17s-.34-1-1.8-1.39c-2.17-.53-2.62-1.2-2.62-2.23s.79-2.14,2.74-2.14S268,326,268.06,327h-1.27a1.5,1.5,0,0,0-1.65-1.18c-1.07,0-1.39.51-1.39,1s.32.85,1.71,1.18c2.31.55,2.77,1.32,2.77,2.45,0,1.33-1.06,2.31-3,2.31s-2.94-1-3.13-2.36Z" transform="translate(-119.06 -235.88)"/><path class="cls-8" d="M269.91,321.61h1.31v1.64h-1.31Zm0,3.4h1.31v7.61h-1.31Z" transform="translate(-119.06 -235.88)"/><path class="cls-8" d="M280,328.8c0,2.19-1.25,4-3.58,4s-3.5-1.69-3.5-4,1.3-4,3.59-4C278.62,324.83,280,326.41,280,328.8Zm-5.72,0c0,1.67.83,2.89,2.2,2.89s2.17-1.15,2.17-2.88-.78-2.89-2.2-2.89S274.28,327.08,274.28,328.81Z" transform="translate(-119.06 -235.88)"/><path class="cls-8" d="M281.72,326.93c0-.66,0-1.33,0-1.92H283a10.53,10.53,0,0,1,0,1.25,2.42,2.42,0,0,1,2.4-1.43c1.42,0,2.54.87,2.54,2.9v4.89h-1.31v-4.73c0-1.15-.45-1.92-1.61-1.92-1.44,0-2,1.09-2,2.62v4h-1.31Z" transform="translate(-119.06 -235.88)"/><path class="cls-8" d="M294.64,325c.94,3.57,1.48,5.61,1.61,6.39h0c.14-.71.68-2.6,1.76-6.39h1.28c1.19,4.31,1.55,5.56,1.67,6.24h0c.19-.81.49-1.95,1.68-6.24H304l-2.34,7.61h-1.42c-.75-2.77-1.48-5.34-1.64-6.17h0c-.14.83-.82,3.15-1.68,6.17h-1.47l-2.2-7.61Z" transform="translate(-119.06 -235.88)"/><path class="cls-8" d="M305.45,321.61h1.31v1.64h-1.31Zm0,3.4h1.31v7.61h-1.31Z" transform="translate(-119.06 -235.88)"/><path class="cls-8" d="M308.1,325h1.32v-2.24h1.31V325h1.68v1.07h-1.68v4.46c0,.74.18,1.12.87,1.12a2.61,2.61,0,0,0,.66-.07v1a3.53,3.53,0,0,1-1.14.14c-1.18,0-1.7-.61-1.7-1.87v-4.77H308.1Z" transform="translate(-119.06 -235.88)"/><path class="cls-8" d="M315.11,321.61v4.52a2.57,2.57,0,0,1,2.38-1.3c1.22,0,2.56.67,2.56,2.93v4.86h-1.31V328c0-1.29-.55-2-1.65-2-1.37,0-2,.91-2,2.49v4.16H313.8v-11Z" transform="translate(-119.06 -235.88)"/><path class="cls-8" d="M326.34,322.18h1.38v4.36h5.44v-4.36h1.38v10.44h-1.38v-4.9h-5.44v4.9h-1.38Z" transform="translate(-119.06 -235.88)"/><path class="cls-8" d="M337.76,329.05c0,1.55.79,2.65,2.08,2.65a1.77,1.77,0,0,0,1.84-1.18H343a3.09,3.09,0,0,1-3.2,2.28c-2.39,0-3.37-1.95-3.37-3.9,0-2.27,1.14-4.07,3.46-4.07s3.25,2,3.25,3.59c0,.23,0,.43,0,.63Zm4.05-.92c0-1.25-.64-2.26-1.94-2.26s-1.93.93-2.06,2.26Z" transform="translate(-119.06 -235.88)"/><path class="cls-8" d="M350.49,331a12.93,12.93,0,0,0,.1,1.66h-1.26a4.28,4.28,0,0,1-.12-1,2.38,2.38,0,0,1-2.35,1.18,2.31,2.31,0,0,1-2.56-2.33c0-1.69,1.34-2.47,3.6-2.47h1.29v-.65c0-.67-.21-1.49-1.63-1.49-1.27,0-1.49.63-1.63,1.23h-1.27c.1-1,.75-2.26,2.94-2.26,1.86,0,2.89.76,2.89,2.49Zm-1.29-2H348c-1.51,0-2.33.42-2.33,1.49a1.35,1.35,0,0,0,1.49,1.37c1.83,0,2.07-1.24,2.07-2.62Z" transform="translate(-119.06 -235.88)"/><path class="cls-8" d="M352.75,332.62v-11h1.32v11Z" transform="translate(-119.06 -235.88)"/><path class="cls-8" d="M355.41,325h1.31v-2.24H358V325h1.68v1.07H358v4.46c0,.74.18,1.12.87,1.12a2.61,2.61,0,0,0,.66-.07v1a3.6,3.6,0,0,1-1.14.14c-1.18,0-1.71-.61-1.71-1.87v-4.77h-1.31Z" transform="translate(-119.06 -235.88)"/><path class="cls-8" d="M362.42,321.61v4.52a2.57,2.57,0,0,1,2.38-1.3c1.22,0,2.56.67,2.56,2.93v4.86h-1.31V328c0-1.29-.55-2-1.65-2-1.37,0-2,.91-2,2.49v4.16h-1.31v-11Z" transform="translate(-119.06 -235.88)"/><path class="cls-8" d="M382.71,326,380,329.92c-1.25,1.82-2.13,2.85-4.05,2.85a2.79,2.79,0,0,1-3-2.76c0-1.36.76-2.3,2.83-3.37,1.34-.74,2.09-1.23,2.09-2.2a1.29,1.29,0,0,0-1.3-1.4,1.31,1.31,0,0,0-1.36,1.45c0,.66.49,1.23,1.26,2l6.28,6.16H381l-5.59-5.51a3.55,3.55,0,0,1-1.41-2.55,2.47,2.47,0,0,1,2.62-2.53,2.38,2.38,0,0,1,2.52,2.4c0,1.15-.75,1.87-2.61,2.91s-2.17,1.67-2.17,2.53a1.72,1.72,0,0,0,1.7,1.73c1.17,0,1.83-.48,3.14-2.46L381.3,326Z" transform="translate(-119.06 -235.88)"/><path class="cls-8" d="M390,322.18v10.44H388.6V322.18Z" transform="translate(-119.06 -235.88)"/><path class="cls-8" d="M392.31,326.93c0-.66,0-1.33,0-1.92h1.28c0,.23.05,1,.05,1.25a2.39,2.39,0,0,1,2.39-1.43c1.43,0,2.54.87,2.54,2.9v4.89h-1.31v-4.73c0-1.15-.45-1.92-1.61-1.92-1.43,0-2,1.09-2,2.62v4h-1.32Z" transform="translate(-119.06 -235.88)"/><path class="cls-8" d="M400.8,326.93c0-.66,0-1.33,0-1.92h1.28c0,.23.05,1,.05,1.25a2.39,2.39,0,0,1,2.39-1.43c1.43,0,2.54.87,2.54,2.9v4.89h-1.31v-4.73c0-1.15-.45-1.92-1.61-1.92-1.43,0-2,1.09-2,2.62v4H400.8Z" transform="translate(-119.06 -235.88)"/><path class="cls-8" d="M415.83,328.8c0,2.19-1.26,4-3.59,4-2.17,0-3.49-1.69-3.49-4s1.29-4,3.58-4C414.44,324.83,415.83,326.41,415.83,328.8Zm-5.73,0c0,1.67.83,2.89,2.2,2.89s2.17-1.15,2.17-2.88-.77-2.89-2.2-2.89S410.1,327.08,410.1,328.81Z" transform="translate(-119.06 -235.88)"/><path class="cls-8" d="M418,325c1,3.11,1.77,5.44,2,6.39h0c.18-.85,1-3.13,2.13-6.39h1.34l-2.8,7.61h-1.44L416.61,325Z" transform="translate(-119.06 -235.88)"/><path class="cls-8" d="M430.3,331a12.93,12.93,0,0,0,.1,1.66h-1.25a4.14,4.14,0,0,1-.13-1,2.37,2.37,0,0,1-2.35,1.18,2.3,2.3,0,0,1-2.55-2.33c0-1.69,1.33-2.47,3.59-2.47H429v-.65c0-.67-.22-1.49-1.64-1.49-1.27,0-1.49.63-1.62,1.23h-1.27c.1-1,.74-2.26,2.93-2.26,1.86,0,2.89.76,2.89,2.49Zm-1.28-2h-1.23c-1.52,0-2.33.42-2.33,1.49a1.34,1.34,0,0,0,1.48,1.37c1.83,0,2.08-1.24,2.08-2.62Z" transform="translate(-119.06 -235.88)"/><path class="cls-8" d="M431.49,325h1.31v-2.24h1.32V325h1.67v1.07h-1.67v4.46c0,.74.18,1.12.86,1.12a2.63,2.63,0,0,0,.67-.07v1a3.6,3.6,0,0,1-1.14.14c-1.18,0-1.71-.61-1.71-1.87v-4.77h-1.31Z" transform="translate(-119.06 -235.88)"/><path class="cls-8" d="M437.19,321.61h1.31v1.64h-1.31Zm0,3.4h1.31v7.61h-1.31Z" transform="translate(-119.06 -235.88)"/><path class="cls-8" d="M447.28,328.8c0,2.19-1.26,4-3.58,4s-3.5-1.69-3.5-4,1.29-4,3.59-4C445.9,324.83,447.28,326.41,447.28,328.8Zm-5.73,0c0,1.67.84,2.89,2.2,2.89s2.18-1.15,2.18-2.88-.78-2.89-2.21-2.89S441.55,327.08,441.55,328.81Z" transform="translate(-119.06 -235.88)"/><path class="cls-8" d="M449,326.93c0-.66,0-1.33,0-1.92h1.28a10.53,10.53,0,0,1,.05,1.25,2.42,2.42,0,0,1,2.4-1.43c1.42,0,2.54.87,2.54,2.9v4.89h-1.32v-4.73c0-1.15-.44-1.92-1.61-1.92-1.43,0-2,1.09-2,2.62v4H449Z" transform="translate(-119.06 -235.88)"/></svg>